<svg width="38" height="38" viewBox="0 0 38 38" fill="none" xmlns="http://www.w3.org/2000/svg" xmlns:xlink="http://www.w3.org/1999/xlink">
<line x1="6" y1="13.083" x2="28.167" y2="13.083" stroke="#000000" stroke-width="2" stroke-miterlimit="3.999327" stroke-linecap="round" stroke-linejoin="round"/>
<path d="M15.669,27.581C16.45,28.362 17.716,28.362 18.498,27.581C19.279,26.8 19.279,25.534 18.498,24.752L15.669,27.581ZM6,15.083L4.586,13.669C3.805,14.45 3.805,15.716 4.586,16.498L6,15.083ZM18.498,5.414C19.279,4.633 19.279,3.367 18.498,2.586C17.716,1.805 16.45,1.805 15.669,2.586L18.498,5.414ZM18.498,24.752L7.414,13.669L4.586,16.498L15.669,27.581L18.498,24.752ZM7.414,16.498L18.498,5.414L15.669,2.586L4.586,13.669L7.414,16.498Z" fill="#000000"/>
</svg>
