<svg width="28" height="34" viewBox="0 0 28 34" fill="none" xmlns="http://www.w3.org/2000/svg" xmlns:xlink="http://www.w3.org/1999/xlink">
<path d="M26,14L28,14L28,14L26,14ZM14,31.333L12.891,32.997C13.562,33.445 14.438,33.445 15.109,32.997L14,31.333ZM2,14L0,14L0,14L2,14ZM14,2L14,4L14,2ZM24,14C24,17.863 21.469,21.709 18.548,24.791C17.129,26.289 15.703,27.518 14.629,28.373C14.094,28.799 13.65,29.129 13.345,29.35C13.192,29.46 13.074,29.543 12.996,29.597C12.957,29.624 12.929,29.644 12.911,29.656C12.902,29.662 12.896,29.666 12.892,29.668C12.891,29.669 12.89,29.67 12.889,29.67C12.889,29.67 12.889,29.67 12.889,29.67C12.89,29.67 12.89,29.67 12.89,29.67C12.89,29.669 12.891,29.669 14,31.333C15.109,32.997 15.11,32.997 15.11,32.997C15.111,32.997 15.111,32.996 15.112,32.996C15.113,32.995 15.114,32.995 15.115,32.994C15.118,32.992 15.121,32.99 15.125,32.987C15.133,32.981 15.144,32.974 15.158,32.965C15.186,32.946 15.224,32.919 15.273,32.885C15.372,32.817 15.511,32.719 15.687,32.593C16.037,32.34 16.531,31.972 17.121,31.502C18.297,30.565 19.871,29.211 21.452,27.542C24.531,24.292 28,19.471 28,14L24,14ZM14,31.333C15.109,29.669 15.11,29.669 15.11,29.67C15.11,29.67 15.11,29.67 15.111,29.67C15.111,29.67 15.111,29.67 15.111,29.67C15.11,29.67 15.109,29.669 15.108,29.668C15.104,29.666 15.098,29.662 15.089,29.656C15.071,29.644 15.043,29.624 15.004,29.597C14.926,29.543 14.808,29.46 14.655,29.35C14.35,29.129 13.906,28.799 13.371,28.373C12.297,27.518 10.871,26.289 9.452,24.791C6.531,21.709 4,17.863 4,14L0,14C0,19.471 3.469,24.292 6.548,27.542C8.129,29.211 9.703,30.565 10.879,31.502C11.469,31.972 11.963,32.34 12.313,32.593C12.489,32.719 12.628,32.817 12.727,32.885C12.776,32.919 12.814,32.946 12.842,32.965C12.856,32.974 12.867,32.981 12.875,32.987C12.879,32.99 12.882,32.992 12.885,32.994C12.886,32.995 12.887,32.995 12.888,32.996C12.889,32.996 12.889,32.997 12.89,32.997C12.89,32.997 12.891,32.997 14,31.333ZM4,14C4,11.348 5.054,8.804 6.929,6.929L4.101,4.101C1.475,6.726 0,10.287 0,14L4,14ZM6.929,6.929C8.804,5.054 11.348,4 14,4L14,0C10.287,0 6.726,1.475 4.101,4.101L6.929,6.929ZM14,4C16.652,4 19.196,5.054 21.071,6.929L23.899,4.101C21.274,1.475 17.713,0 14,0L14,4ZM21.071,6.929C22.946,8.804 24,11.348 24,14L28,14C28,10.287 26.525,6.726 23.899,4.101L21.071,6.929Z" fill="#E9CEDB"/>
<path d="M16,14C16,15.105 15.105,16 14,16L14,20C17.314,20 20,17.314 20,14L16,14ZM14,16C12.895,16 12,15.105 12,14L8,14C8,17.314 10.686,20 14,20L14,16ZM12,14C12,12.895 12.895,12 14,12L14,8C10.686,8 8,10.686 8,14L12,14ZM14,12C15.105,12 16,12.895 16,14L20,14C20,10.686 17.314,8 14,8L14,12Z" fill="#E9CEDB"/>
</svg>
