<svg width="528" height="136" viewBox="0 0 528 136" fill="none" xmlns="http://www.w3.org/2000/svg" xmlns:xlink="http://www.w3.org/1999/xlink">
<g filter="url(#filter3_178)">
<rect  x="19.595" y="20" width="487.586" height="96" rx="20" fill="#E6F7FF"/>
</g>
<path d="M82.259,84.88L83.37,85.888L83.37,85.887L82.259,84.88ZM78.979,87.24L78.41,85.852L78.402,85.855L78.979,87.24ZM61.679,82.58L60.794,83.791L60.796,83.793L61.679,82.58ZM55.119,76.98L54.053,78.036L54.063,78.046L55.119,76.98ZM49.539,70.44L48.321,71.316L48.326,71.323L49.539,70.44ZM45.619,63.62L44.236,64.202L44.238,64.206L45.619,63.62ZM44.899,53.22L46.292,53.777L46.295,53.769L44.899,53.22ZM47.199,49.88L48.228,50.971L48.24,50.96L48.251,50.949L47.199,49.88ZM52.979,48.36L52.33,49.712L52.35,49.722L52.979,48.36ZM54.319,49.48L53.085,50.334L53.095,50.348L54.319,49.48ZM58.959,56.02L57.735,56.888L57.742,56.896L58.959,56.02ZM59.759,57.42L58.37,57.988L58.38,58.011L59.759,57.42ZM59.619,60.06L58.338,59.28L58.325,59.301L58.313,59.322L59.619,60.06ZM58.499,61.48L57.438,60.419L57.428,60.43L57.418,60.44L58.499,61.48ZM56.979,63.06L58.039,64.121L58.05,64.11L58.06,64.1L56.979,63.06ZM56.719,64.32L55.264,64.684L55.284,64.767L55.314,64.847L56.719,64.32ZM56.879,64.72L55.456,65.194L55.498,65.321L55.562,65.438L56.879,64.72ZM58.739,67.28L57.594,68.249L57.605,68.262L58.739,67.28ZM61.639,70.44L60.568,71.491L60.578,71.501L60.588,71.511L61.639,70.44ZM64.819,73.38L63.848,74.523L63.85,74.525L64.819,73.38ZM67.399,75.22L66.697,76.546L66.768,76.583L66.842,76.613L67.399,75.22ZM67.759,75.38L67.168,76.759L67.2,76.772L67.232,76.784L67.759,75.38ZM69.079,75.12L68.025,74.052L68.018,74.059L69.079,75.12ZM70.599,73.62L71.652,74.688L71.659,74.681L70.599,73.62ZM72.039,72.5L72.733,73.83L72.776,73.807L72.819,73.781L72.039,72.5ZM76.079,73.12L76.947,71.897L76.935,71.888L76.922,71.88L76.079,73.12ZM82.699,77.82L81.83,79.043L81.845,79.053L82.699,77.82ZM83.799,79.1L85.192,78.543L85.182,78.519L85.172,78.496L83.799,79.1ZM82.619,80.66C82.619,81.155 82.509,81.677 82.262,82.199L84.975,83.481C85.408,82.563 85.619,81.605 85.619,80.66L82.619,80.66ZM82.262,82.199C81.982,82.793 81.623,83.348 81.147,83.873L83.37,85.887C84.055,85.132 84.576,84.327 84.975,83.481L82.262,82.199ZM81.148,83.872C80.3,84.806 79.4,85.446 78.41,85.852L79.548,88.628C80.998,88.034 82.258,87.114 83.37,85.888L81.148,83.872ZM78.402,85.855C77.392,86.276 76.288,86.5 75.079,86.5L75.079,89.5C76.669,89.5 78.166,89.204 79.556,88.625L78.402,85.855ZM75.079,86.5C73.276,86.5 71.296,86.076 69.147,85.16L67.971,87.92C70.421,88.964 72.802,89.5 75.079,89.5L75.079,86.5ZM69.147,85.16C66.962,84.229 64.76,82.968 62.562,81.367L60.796,83.793C63.158,85.512 65.556,86.891 67.971,87.92L69.147,85.16ZM62.564,81.369C60.325,79.734 58.202,77.923 56.174,75.914L54.063,78.046C56.195,80.157 58.432,82.066 60.794,83.791L62.564,81.369ZM56.185,75.924C54.176,73.896 52.365,71.774 50.751,69.557L48.326,71.323C50.032,73.666 51.942,75.904 54.053,78.036L56.185,75.924ZM50.757,69.564C49.169,67.358 47.909,65.174 46.999,63.034L44.238,64.206C45.249,66.586 46.628,68.963 48.321,71.316L50.757,69.564ZM47.001,63.038C46.104,60.908 45.679,58.926 45.679,57.08L42.679,57.08C42.679,59.394 43.213,61.772 44.236,64.202L47.001,63.038ZM45.679,57.08C45.679,55.898 45.887,54.788 46.292,53.777L43.506,52.663C42.951,54.052 42.679,55.542 42.679,57.08L45.679,57.08ZM46.295,53.769C46.689,52.767 47.319,51.829 48.228,50.971L46.17,48.789C44.959,49.931 44.069,51.233 43.503,52.671L46.295,53.769ZM48.251,50.949C49.305,49.912 50.343,49.5 51.359,49.5L51.359,46.5C49.415,46.5 47.653,47.328 46.147,48.811L48.251,50.949ZM51.359,49.5C51.709,49.5 52.045,49.576 52.33,49.712L53.628,47.008C52.913,46.664 52.129,46.5 51.359,46.5L51.359,49.5ZM52.35,49.722C52.647,49.859 52.89,50.052 53.086,50.334L55.552,48.626C55.027,47.868 54.35,47.341 53.607,46.998L52.35,49.722ZM53.095,50.348L57.735,56.888L60.182,55.152L55.542,48.612L53.095,50.348ZM57.742,56.896C58.047,57.321 58.244,57.678 58.371,57.988L61.147,56.852C60.914,56.282 60.59,55.719 60.176,55.144L57.742,56.896ZM58.38,58.011C58.502,58.294 58.539,58.512 58.539,58.64L61.539,58.64C61.539,58.009 61.376,57.386 61.138,56.829L58.38,58.011ZM58.539,58.64C58.539,58.818 58.489,59.031 58.338,59.28L60.9,60.84C61.309,60.169 61.539,59.422 61.539,58.64L58.539,58.64ZM58.313,59.322C58.137,59.634 57.85,60.007 57.438,60.419L59.559,62.541C60.107,61.993 60.581,61.406 60.925,60.798L58.313,59.322ZM57.418,60.44L55.898,62.02L58.06,64.1L59.58,62.52L57.418,60.44ZM55.918,61.999C55.394,62.524 55.159,63.176 55.159,63.86L58.159,63.86C58.159,63.859 58.158,63.905 58.131,63.975C58.102,64.048 58.063,64.097 58.039,64.121L55.918,61.999ZM55.159,63.86C55.159,64.162 55.199,64.425 55.264,64.684L58.174,63.956C58.159,63.895 58.159,63.878 58.159,63.86L55.159,63.86ZM55.314,64.847C55.357,64.962 55.401,65.063 55.425,65.119C55.454,65.188 55.457,65.198 55.456,65.194L58.302,64.246C58.261,64.122 58.214,64.012 58.188,63.951C58.157,63.877 58.14,63.838 58.123,63.793L55.314,64.847ZM55.562,65.438C55.993,66.228 56.687,67.178 57.594,68.249L59.884,66.311C59.03,65.302 58.485,64.532 58.196,64.002L55.562,65.438ZM57.605,68.262C58.52,69.319 59.501,70.403 60.568,71.491L62.71,69.389C61.696,68.357 60.758,67.321 59.873,66.298L57.605,68.262ZM60.588,71.511C61.68,72.582 62.749,73.59 63.848,74.523L65.79,72.237C64.769,71.37 63.757,70.418 62.69,69.369L60.588,71.511ZM63.85,74.525C64.934,75.443 65.886,76.116 66.697,76.546L68.101,73.894C67.552,73.604 66.783,73.077 65.788,72.235L63.85,74.525ZM66.842,76.613C66.852,76.617 66.874,76.626 66.939,76.656C66.993,76.681 67.077,76.72 67.168,76.759L68.35,74.001C68.3,73.98 68.254,73.959 68.189,73.929C68.134,73.904 68.046,73.863 67.956,73.827L66.842,76.613ZM67.232,76.784C67.611,76.927 67.963,76.96 68.259,76.96L68.259,73.96C68.224,73.96 68.216,73.958 68.226,73.959C68.231,73.96 68.24,73.962 68.251,73.965C68.262,73.967 68.274,73.971 68.285,73.976L67.232,76.784ZM68.259,76.96C69.018,76.96 69.654,76.667 70.139,76.181L68.018,74.059C68.023,74.054 68.059,74.021 68.126,73.992C68.194,73.963 68.247,73.96 68.259,73.96L68.259,76.96ZM70.132,76.188L71.652,74.688L69.545,72.552L68.025,74.052L70.132,76.188ZM71.659,74.681C72.099,74.241 72.457,73.974 72.733,73.83L71.345,71.17C70.701,71.506 70.099,71.999 69.538,72.559L71.659,74.681ZM72.819,73.781C73.073,73.626 73.266,73.58 73.459,73.58L73.459,70.58C72.651,70.58 71.924,70.814 71.259,71.219L72.819,73.781ZM73.459,73.58C73.619,73.58 73.826,73.612 74.111,73.728L75.247,70.952C74.651,70.708 74.059,70.58 73.459,70.58L73.459,73.58ZM74.111,73.728C74.425,73.857 74.791,74.058 75.235,74.36L76.922,71.88C76.367,71.502 75.813,71.183 75.247,70.952L74.111,73.728ZM75.21,74.343L81.83,79.043L83.567,76.597L76.947,71.897L75.21,74.343ZM81.845,79.053C82.172,79.28 82.333,79.494 82.426,79.704L85.172,78.496C84.824,77.706 84.266,77.08 83.553,76.587L81.845,79.053ZM82.406,79.657C82.551,80.02 82.619,80.33 82.619,80.66L85.619,80.66C85.619,79.87 85.446,79.18 85.192,78.543L82.406,79.657Z" fill="#171717"/>
<defs>
<filter id="filter3_178" x="15.595276" y="16" width="251.792938" height="56" filterUnits="userSpaceOnUse" color-interpolation-filters="sRGB">
<feFlood flood-opacity="0" result="BackgroundImageFix"/>
<feColorMatrix in="SourceAlpha" type="matrix" values="0 0 0 0 0 0 0 0 0 0 0 0 0 0 0 0 0 0 127 0" result="hardAlpha"/>
<feMorphology radius="0" operator="dilate" in="SourceAlpha" result="0dropshadow"/>
<feOffset dx="0" dy="4"/>
<feGaussianBlur stdDeviation="2"/>
<feComposite in2="hardAlpha" operator="out"/>
<feColorMatrix type="matrix" values="0 0 0 0 0 0 0 0 0 0 0 0 0 0 0 0 0 0 0.25 0"/>
<feBlend mode="normal" in2="BackgroundImageFix" result="0dropshadow"/>
<feBlend mode="normal" in="SourceGraphic" in2="0dropshadow" result="shape"/>
</filter>
</defs>
</svg>
