<svg width="528" height="136" viewBox="0 0 528 136" fill="none" xmlns="http://www.w3.org/2000/svg" xmlns:xlink="http://www.w3.org/1999/xlink">
<g filter="url(#filter15_909)">
<rect  x="19.305" y="20" width="487.586" height="96" rx="20" fill="#E6F7FF"/>
</g>
<path d="M62.502,73C62.502,73.828 63.174,74.5 64.002,74.5C64.831,74.5 65.502,73.828 65.502,73L62.502,73ZM80.002,73C80.002,73.828 80.674,74.5 81.502,74.5C82.331,74.5 83.002,73.828 83.002,73L80.002,73ZM65.502,73L65.502,70L62.502,70L62.502,73L65.502,73ZM65.502,70C65.502,67.593 65.869,65.775 66.823,64.558C67.714,63.422 69.375,62.5 72.752,62.5L72.752,59.5C68.838,59.5 66.123,60.588 64.462,62.707C62.864,64.745 62.502,67.427 62.502,70L65.502,70ZM72.752,62.5C76.13,62.5 77.79,63.422 78.681,64.558C79.635,65.775 80.002,67.593 80.002,70L83.002,70C83.002,67.427 82.64,64.745 81.042,62.707C79.381,60.588 76.667,59.5 72.752,59.5L72.752,62.5ZM80.002,70L80.002,73L83.002,73L83.002,70L80.002,70Z" fill="#171717"/>
<path d="M73.002,82C73.002,82.206 72.851,82.3 72.752,82.3L72.752,85.3C74.587,85.3 76.002,83.782 76.002,82L73.002,82ZM72.752,82.3C72.654,82.3 72.502,82.206 72.502,82L69.502,82C69.502,83.782 70.918,85.3 72.752,85.3L72.752,82.3ZM72.502,82C72.502,81.794 72.654,81.7 72.752,81.7L72.752,78.7C70.918,78.7 69.502,80.218 69.502,82L72.502,82ZM72.752,81.7C72.851,81.7 73.002,81.794 73.002,82L76.002,82C76.002,80.218 74.587,78.7 72.752,78.7L72.752,81.7Z" fill="#171717"/>
<path d="M80.044,89.5L65.46,89.5L65.46,92.5L80.044,92.5L80.044,89.5ZM65.46,89.5C62.539,89.5 61.319,89.088 60.703,88.454C60.072,87.806 59.669,86.516 59.669,83.5L56.669,83.5C56.669,86.484 56.995,88.944 58.552,90.546C60.123,92.162 62.549,92.5 65.46,92.5L65.46,89.5ZM59.669,83.5L59.669,80.5L56.669,80.5L56.669,83.5L59.669,83.5ZM59.669,80.5C59.669,77.484 60.072,76.194 60.703,75.546C61.319,74.912 62.539,74.5 65.46,74.5L65.46,71.5C62.549,71.5 60.123,71.838 58.552,73.454C56.995,75.056 56.669,77.516 56.669,80.5L59.669,80.5ZM65.46,74.5L80.044,74.5L80.044,71.5L65.46,71.5L65.46,74.5ZM80.044,74.5C82.966,74.5 84.185,74.912 84.802,75.546C85.432,76.194 85.835,77.484 85.835,80.5L88.835,80.5C88.835,77.516 88.509,75.056 86.953,73.454C85.381,71.838 82.955,71.5 80.044,71.5L80.044,74.5ZM85.835,80.5L85.835,83.5L88.835,83.5L88.835,80.5L85.835,80.5ZM85.835,83.5C85.835,86.516 85.432,87.806 84.802,88.454C84.185,89.088 82.966,89.5 80.044,89.5L80.044,92.5C82.955,92.5 85.381,92.162 86.953,90.546C88.509,88.944 88.835,86.484 88.835,83.5L85.835,83.5Z" fill="#171717"/>
<path d="M100.419,76C100.419,91.78 87.993,104.5 72.752,104.5L72.752,107.5C89.729,107.5 103.419,93.357 103.419,76L100.419,76ZM72.752,104.5C57.512,104.5 45.086,91.78 45.086,76L42.086,76C42.086,93.357 55.776,107.5 72.752,107.5L72.752,104.5ZM45.086,76C45.086,60.22 57.512,47.5 72.752,47.5L72.752,44.5C55.776,44.5 42.086,58.643 42.086,76L45.086,76ZM72.752,47.5C87.993,47.5 100.419,60.22 100.419,76L103.419,76C103.419,58.643 89.729,44.5 72.752,44.5L72.752,47.5Z" fill="#171717"/>
<defs>
<filter id="filter15_909" x="15.305176" y="16" width="251.792938" height="56" filterUnits="userSpaceOnUse" color-interpolation-filters="sRGB">
<feFlood flood-opacity="0" result="BackgroundImageFix"/>
<feColorMatrix in="SourceAlpha" type="matrix" values="0 0 0 0 0 0 0 0 0 0 0 0 0 0 0 0 0 0 127 0" result="hardAlpha"/>
<feMorphology radius="0" operator="dilate" in="SourceAlpha" result="0dropshadow"/>
<feOffset dx="0" dy="4"/>
<feGaussianBlur stdDeviation="2"/>
<feComposite in2="hardAlpha" operator="out"/>
<feColorMatrix type="matrix" values="0 0 0 0 0 0 0 0 0 0 0 0 0 0 0 0 0 0 0.25 0"/>
<feBlend mode="normal" in2="BackgroundImageFix" result="0dropshadow"/>
<feBlend mode="normal" in="SourceGraphic" in2="0dropshadow" result="shape"/>
</filter>
</defs>
</svg>
