<svg width="528" height="136" viewBox="0 0 528 136" fill="none" xmlns="http://www.w3.org/2000/svg" xmlns:xlink="http://www.w3.org/1999/xlink">
<g filter="url(#filter3_179)">
<rect  x="19.595" y="20" width="487.586" height="96" rx="20" fill="#E6F7FF"/>
</g>
<path d="M62.792,73C62.792,73.828 63.464,74.5 64.292,74.5C65.121,74.5 65.792,73.828 65.792,73L62.792,73ZM80.292,73C80.292,73.828 80.964,74.5 81.792,74.5C82.621,74.5 83.292,73.828 83.292,73L80.292,73ZM65.792,73L65.792,70L62.792,70L62.792,73L65.792,73ZM65.792,70C65.792,67.593 66.159,65.775 67.113,64.558C68.004,63.422 69.665,62.5 73.042,62.5L73.042,59.5C69.128,59.5 66.414,60.588 64.753,62.707C63.155,64.745 62.792,67.427 62.792,70L65.792,70ZM73.042,62.5C76.42,62.5 78.08,63.422 78.971,64.558C79.925,65.775 80.292,67.593 80.292,70L83.292,70C83.292,67.427 82.93,64.745 81.332,62.707C79.671,60.588 76.957,59.5 73.042,59.5L73.042,62.5ZM80.292,70L80.292,73L83.292,73L83.292,70L80.292,70Z" fill="#171717"/>
<path d="M73.292,82C73.292,82.206 73.141,82.3 73.042,82.3L73.042,85.3C74.877,85.3 76.292,83.782 76.292,82L73.292,82ZM73.042,82.3C72.944,82.3 72.792,82.206 72.792,82L69.792,82C69.792,83.782 71.208,85.3 73.042,85.3L73.042,82.3ZM72.792,82C72.792,81.794 72.944,81.7 73.042,81.7L73.042,78.7C71.208,78.7 69.792,80.218 69.792,82L72.792,82ZM73.042,81.7C73.141,81.7 73.292,81.794 73.292,82L76.292,82C76.292,80.218 74.877,78.7 73.042,78.7L73.042,81.7Z" fill="#171717"/>
<path d="M80.334,89.5L65.751,89.5L65.751,92.5L80.334,92.5L80.334,89.5ZM65.751,89.5C62.829,89.5 61.609,89.088 60.993,88.454C60.362,87.806 59.959,86.516 59.959,83.5L56.959,83.5C56.959,86.484 57.285,88.944 58.842,90.546C60.413,92.162 62.839,92.5 65.751,92.5L65.751,89.5ZM59.959,83.5L59.959,80.5L56.959,80.5L56.959,83.5L59.959,83.5ZM59.959,80.5C59.959,77.484 60.362,76.194 60.993,75.546C61.609,74.912 62.829,74.5 65.751,74.5L65.751,71.5C62.839,71.5 60.413,71.838 58.842,73.454C57.285,75.056 56.959,77.516 56.959,80.5L59.959,80.5ZM65.751,74.5L80.334,74.5L80.334,71.5L65.751,71.5L65.751,74.5ZM80.334,74.5C83.256,74.5 84.475,74.912 85.092,75.546C85.723,76.194 86.126,77.484 86.126,80.5L89.126,80.5C89.126,77.516 88.8,75.056 87.243,73.454C85.672,71.838 83.246,71.5 80.334,71.5L80.334,74.5ZM86.126,80.5L86.126,83.5L89.126,83.5L89.126,80.5L86.126,80.5ZM86.126,83.5C86.126,86.516 85.723,87.806 85.092,88.454C84.475,89.088 83.256,89.5 80.334,89.5L80.334,92.5C83.246,92.5 85.672,92.162 87.243,90.546C88.8,88.944 89.126,86.484 89.126,83.5L86.126,83.5Z" fill="#171717"/>
<path d="M100.709,76C100.709,91.78 88.283,104.5 73.042,104.5L73.042,107.5C90.019,107.5 103.709,93.357 103.709,76L100.709,76ZM73.042,104.5C57.802,104.5 45.376,91.78 45.376,76L42.376,76C42.376,93.357 56.066,107.5 73.042,107.5L73.042,104.5ZM45.376,76C45.376,60.22 57.802,47.5 73.042,47.5L73.042,44.5C56.066,44.5 42.376,58.643 42.376,76L45.376,76ZM73.042,47.5C88.283,47.5 100.709,60.22 100.709,76L103.709,76C103.709,58.643 90.019,44.5 73.042,44.5L73.042,47.5Z" fill="#171717"/>
<defs>
<filter id="filter3_179" x="15.595276" y="16" width="251.792938" height="56" filterUnits="userSpaceOnUse" color-interpolation-filters="sRGB">
<feFlood flood-opacity="0" result="BackgroundImageFix"/>
<feColorMatrix in="SourceAlpha" type="matrix" values="0 0 0 0 0 0 0 0 0 0 0 0 0 0 0 0 0 0 127 0" result="hardAlpha"/>
<feMorphology radius="0" operator="dilate" in="SourceAlpha" result="0dropshadow"/>
<feOffset dx="0" dy="4"/>
<feGaussianBlur stdDeviation="2"/>
<feComposite in2="hardAlpha" operator="out"/>
<feColorMatrix type="matrix" values="0 0 0 0 0 0 0 0 0 0 0 0 0 0 0 0 0 0 0.25 0"/>
<feBlend mode="normal" in2="BackgroundImageFix" result="0dropshadow"/>
<feBlend mode="normal" in="SourceGraphic" in2="0dropshadow" result="shape"/>
</filter>
</defs>
</svg>
