<svg width="528" height="136" viewBox="0 0 528 136" fill="none" xmlns="http://www.w3.org/2000/svg" xmlns:xlink="http://www.w3.org/1999/xlink">
<g filter="url(#filter3_177)">
<rect  x="19.595" y="20" width="487.586" height="96" rx="20" fill="#E6F7FF"/>
</g>
<path d="M83.455,54C83.455,58.694 79.65,62.5 74.955,62.5L74.955,65.5C81.307,65.5 86.455,60.351 86.455,54L83.455,54ZM74.955,62.5C70.261,62.5 66.455,58.694 66.455,54L63.455,54C63.455,60.351 68.604,65.5 74.955,65.5L74.955,62.5ZM66.455,54C66.455,49.306 70.261,45.5 74.955,45.5L74.955,42.5C68.604,42.5 63.455,47.649 63.455,54L66.455,54ZM74.955,45.5C79.65,45.5 83.455,49.306 83.455,54L86.455,54C86.455,47.649 81.307,42.5 74.955,42.5L74.955,45.5Z" fill="#171717"/>
<path d="M90.635,84C90.635,84.828 91.307,85.5 92.135,85.5C92.964,85.5 93.635,84.828 93.635,84L90.635,84ZM56.275,84C56.275,84.828 56.947,85.5 57.775,85.5C58.604,85.5 59.275,84.828 59.275,84L56.275,84ZM93.635,84C93.635,75.158 84.961,68.5 74.955,68.5L74.955,71.5C83.909,71.5 90.635,77.362 90.635,84L93.635,84ZM74.955,68.5C64.95,68.5 56.275,75.158 56.275,84L59.275,84C59.275,77.362 66.001,71.5 74.955,71.5L74.955,68.5Z" fill="#171717"/>
<defs>
<filter id="filter3_177" x="15.595276" y="16" width="251.792938" height="56" filterUnits="userSpaceOnUse" color-interpolation-filters="sRGB">
<feFlood flood-opacity="0" result="BackgroundImageFix"/>
<feColorMatrix in="SourceAlpha" type="matrix" values="0 0 0 0 0 0 0 0 0 0 0 0 0 0 0 0 0 0 127 0" result="hardAlpha"/>
<feMorphology radius="0" operator="dilate" in="SourceAlpha" result="0dropshadow"/>
<feOffset dx="0" dy="4"/>
<feGaussianBlur stdDeviation="2"/>
<feComposite in2="hardAlpha" operator="out"/>
<feColorMatrix type="matrix" values="0 0 0 0 0 0 0 0 0 0 0 0 0 0 0 0 0 0 0.25 0"/>
<feBlend mode="normal" in2="BackgroundImageFix" result="0dropshadow"/>
<feBlend mode="normal" in="SourceGraphic" in2="0dropshadow" result="shape"/>
</filter>
</defs>
</svg>
