<svg width="32" height="32" viewBox="0 0 32 32" fill="none" xmlns="http://www.w3.org/2000/svg" xmlns:xlink="http://www.w3.org/1999/xlink">
<path d="M7.333,14.667C7.333,15.771 8.229,16.667 9.333,16.667C10.438,16.667 11.333,15.771 11.333,14.667L7.333,14.667ZM9.333,9.333L7.333,9.333L9.333,9.333ZM16,2.667L16,0.667L16,2.667ZM20.667,14.667C20.667,15.771 21.562,16.667 22.667,16.667C23.771,16.667 24.667,15.771 24.667,14.667L20.667,14.667ZM11.333,14.667L11.333,9.333L7.333,9.333L7.333,14.667L11.333,14.667ZM11.333,9.333C11.333,8.096 11.825,6.909 12.7,6.033L9.872,3.205C8.246,4.83 7.333,7.035 7.333,9.333L11.333,9.333ZM12.7,6.033C13.575,5.158 14.762,4.667 16,4.667L16,0.667C13.701,0.667 11.497,1.58 9.872,3.205L12.7,6.033ZM16,4.667C17.238,4.667 18.425,5.158 19.3,6.033L22.128,3.205C20.503,1.58 18.298,0.667 16,0.667L16,4.667ZM19.3,6.033C20.175,6.909 20.667,8.096 20.667,9.333L24.667,9.333C24.667,7.035 23.753,4.83 22.128,3.205L19.3,6.033ZM20.667,9.333L20.667,14.667L24.667,14.667L24.667,9.333L20.667,9.333Z" fill="#E9CEDB"/>
<path d="M6.667,16.667L25.333,16.667L25.333,12.667L6.667,12.667L6.667,16.667ZM25.333,16.667C25.702,16.667 26,16.965 26,17.333L30,17.333C30,14.756 27.911,12.667 25.333,12.667L25.333,16.667ZM26,17.333L26,26.667L30,26.667L30,17.333L26,17.333ZM26,26.667C26,27.035 25.702,27.333 25.333,27.333L25.333,31.333C27.911,31.333 30,29.244 30,26.667L26,26.667ZM25.333,27.333L6.667,27.333L6.667,31.333L25.333,31.333L25.333,27.333ZM6.667,27.333C6.298,27.333 6,27.035 6,26.667L2,26.667C2,29.244 4.089,31.333 6.667,31.333L6.667,27.333ZM6,26.667L6,17.333L2,17.333L2,26.667L6,26.667ZM6,17.333C6,16.965 6.298,16.667 6.667,16.667L6.667,12.667C4.089,12.667 2,14.756 2,17.333L6,17.333Z" fill="#E9CEDB"/>
</svg>
