<svg width="88" height="88" viewBox="0 0 88 88" fill="none" xmlns="http://www.w3.org/2000/svg" xmlns:xlink="http://www.w3.org/1999/xlink">
<path d="M66.513,79.273L66.938,80.712C67.621,80.51 68.068,79.856 68.008,79.147L66.513,79.273ZM21.487,79.273L19.992,79.147C19.932,79.856 20.379,80.51 21.062,80.712L21.487,79.273ZM66.088,77.835C63.043,78.734 59.383,79.167 55,79.167L55,82.167C59.563,82.167 63.53,81.719 66.938,80.712L66.088,77.835ZM55,79.167L33,79.167L33,82.167L55,82.167L55,79.167ZM33,79.167C28.617,79.167 24.957,78.734 21.912,77.835L21.062,80.712C24.47,81.719 28.437,82.167 33,82.167L33,79.167ZM22.981,79.4C23.702,70.882 32.598,63.723 44,63.723L44,60.723C31.569,60.723 20.885,68.598 19.992,79.147L22.981,79.4ZM44,63.723C55.402,63.723 64.298,70.882 65.019,79.4L68.008,79.147C67.115,68.598 56.431,60.723 44,60.723L44,63.723Z" fill="#171717"/>
<path d="M21.487,79.273L21.078,80.717C21.509,80.839 21.972,80.762 22.34,80.507C22.708,80.252 22.944,79.846 22.981,79.4L21.487,79.273ZM66.513,79.273L65.019,79.4C65.056,79.846 65.292,80.252 65.66,80.507C66.028,80.762 66.491,80.839 66.922,80.717L66.513,79.273ZM55,5.833L33,5.833L33,8.833L55,8.833L55,5.833ZM33,5.833C23.685,5.833 16.775,7.687 12.231,12.231C7.687,16.775 5.833,23.685 5.833,33L8.833,33C8.833,23.981 10.646,18.058 14.352,14.352C18.058,10.646 23.981,8.833 33,8.833L33,5.833ZM5.833,33L5.833,55L8.833,55L8.833,33L5.833,33ZM5.833,55C5.833,62.051 6.891,67.716 9.37,72.024C11.884,76.393 15.771,79.214 21.078,80.717L21.895,77.83C17.229,76.509 14.039,74.124 11.97,70.527C9.865,66.869 8.833,61.809 8.833,55L5.833,55ZM22.981,79.4C23.702,70.882 32.598,63.723 44,63.723L44,60.723C31.569,60.723 20.885,68.598 19.992,79.147L22.981,79.4ZM44,63.723C55.402,63.723 64.298,70.882 65.019,79.4L68.008,79.147C67.115,68.598 56.431,60.723 44,60.723L44,63.723ZM66.922,80.717C72.229,79.214 76.116,76.393 78.63,72.024C81.109,67.716 82.167,62.051 82.167,55L79.167,55C79.167,61.809 78.135,66.869 76.03,70.527C73.961,74.124 70.771,76.509 66.105,77.83L66.922,80.717ZM82.167,55L82.167,33L79.167,33L79.167,55L82.167,55ZM82.167,33C82.167,23.685 80.313,16.775 75.769,12.231C71.225,7.687 64.315,5.833 55,5.833L55,8.833C64.019,8.833 69.942,10.646 73.648,14.352C77.354,18.058 79.167,23.981 79.167,33L82.167,33ZM44,50.457C37.574,50.457 32.373,45.23 32.373,38.793L29.373,38.793C29.373,46.876 35.906,53.457 44,53.457L44,50.457ZM32.373,38.793C32.373,32.362 37.569,27.167 44,27.167L44,24.167C35.912,24.167 29.373,30.705 29.373,38.793L32.373,38.793ZM44,27.167C50.432,27.167 55.627,32.362 55.627,38.793L58.627,38.793C58.627,30.705 52.089,24.167 44,24.167L44,27.167ZM55.627,38.793C55.627,45.23 50.426,50.457 44,50.457L44,53.457C52.094,53.457 58.627,46.876 58.627,38.793L55.627,38.793Z" fill="#171717"/>
<path d="M55.627,38.793C55.627,45.23 50.426,50.457 44,50.457L44,53.457C52.094,53.457 58.627,46.876 58.627,38.793L55.627,38.793ZM44,50.457C37.574,50.457 32.373,45.23 32.373,38.793L29.373,38.793C29.373,46.876 35.906,53.457 44,53.457L44,50.457ZM32.373,38.793C32.373,32.362 37.568,27.167 44,27.167L44,24.167C35.912,24.167 29.373,30.705 29.373,38.793L32.373,38.793ZM44,27.167C50.432,27.167 55.627,32.362 55.627,38.793L58.627,38.793C58.627,30.705 52.089,24.167 44,24.167L44,27.167Z" fill="#171717"/>
</svg>
