<svg width="28" height="28" viewBox="0 0 28 28" fill="none" xmlns="http://www.w3.org/2000/svg" xmlns:xlink="http://www.w3.org/1999/xlink">
<path d="M7.333,2L8.394,3.061C8.823,2.632 8.951,1.986 8.719,1.426C8.487,0.865 7.94,0.5 7.333,0.5L7.333,2ZM4.667,2L4.667,0.5L4.667,2ZM2,4.667L0.5,4.667L2,4.667ZM2,7.333L0.5,7.333C0.5,7.94 0.865,8.487 1.426,8.719C1.986,8.951 2.632,8.823 3.061,8.394L2,7.333ZM20.667,2L20.667,0.5C20.06,0.5 19.513,0.865 19.281,1.426C19.049,1.986 19.177,2.632 19.606,3.061L20.667,2ZM23.333,2L23.333,0.5L23.333,2ZM26,7.333L24.939,8.394C25.368,8.823 26.014,8.951 26.574,8.719C27.135,8.487 27.5,7.94 27.5,7.333L26,7.333ZM20.833,8.667C20.833,7.838 20.162,7.167 19.333,7.167C18.505,7.167 17.833,7.838 17.833,8.667L20.833,8.667ZM17.833,11.333C17.833,12.162 18.505,12.833 19.333,12.833C20.162,12.833 20.833,12.162 20.833,11.333L17.833,11.333ZM10.167,8.667C10.167,7.838 9.495,7.167 8.667,7.167C7.838,7.167 7.167,7.838 7.167,8.667L10.167,8.667ZM7.167,11.333C7.167,12.162 7.838,12.833 8.667,12.833C9.495,12.833 10.167,12.162 10.167,11.333L7.167,11.333ZM10,19.333L10,17.833C9.393,17.833 8.846,18.199 8.614,18.759C8.382,19.32 8.51,19.965 8.939,20.394L10,19.333ZM18,19.333L19.061,20.394C19.49,19.965 19.618,19.32 19.386,18.759C19.154,18.199 18.607,17.833 18,17.833L18,19.333ZM14,8.667L15.5,8.667C15.5,7.895 14.915,7.25 14.148,7.174C13.38,7.098 12.68,7.616 12.529,8.373L14,8.667ZM14,15.333L14,16.833C14.828,16.833 15.5,16.162 15.5,15.333L14,15.333ZM12.667,15.333L11.196,15.039C11.108,15.48 11.222,15.937 11.507,16.284C11.792,16.632 12.217,16.833 12.667,16.833L12.667,15.333ZM7.333,26L7.333,27.5C7.94,27.5 8.487,27.135 8.719,26.574C8.951,26.014 8.823,25.368 8.394,24.939L7.333,26ZM2,23.333L0.5,23.333L2,23.333ZM2,20.667L3.061,19.606C2.632,19.177 1.986,19.049 1.426,19.281C0.865,19.513 0.5,20.06 0.5,20.667L2,20.667ZM20.667,24.5C19.838,24.5 19.167,25.172 19.167,26C19.167,26.828 19.838,27.5 20.667,27.5L20.667,24.5ZM27.5,20.667C27.5,19.838 26.828,19.167 26,19.167C25.172,19.167 24.5,19.838 24.5,20.667L27.5,20.667ZM7.333,0.5L4.667,0.5L4.667,3.5L7.333,3.5L7.333,0.5ZM4.667,0.5C3.562,0.5 2.502,0.939 1.72,1.72L3.842,3.842C4.061,3.623 4.357,3.5 4.667,3.5L4.667,0.5ZM1.72,1.72C0.939,2.502 0.5,3.562 0.5,4.667L3.5,4.667C3.5,4.357 3.623,4.06 3.842,3.842L1.72,1.72ZM0.5,4.667L0.5,7.333L3.5,7.333L3.5,4.667L0.5,4.667ZM3.061,8.394L8.394,3.061L6.273,0.939L0.939,6.273L3.061,8.394ZM20.667,3.5L23.333,3.5L23.333,0.5L20.667,0.5L20.667,3.5ZM23.333,3.5C23.643,3.5 23.939,3.623 24.158,3.842L26.28,1.72C25.498,0.939 24.438,0.5 23.333,0.5L23.333,3.5ZM24.158,3.842C24.377,4.06 24.5,4.357 24.5,4.667L27.5,4.667C27.5,3.562 27.061,2.502 26.28,1.72L24.158,3.842ZM24.5,4.667L24.5,7.333L27.5,7.333L27.5,4.667L24.5,4.667ZM27.061,6.273L21.727,0.939L19.606,3.061L24.939,8.394L27.061,6.273ZM17.833,8.667L17.833,11.333L20.833,11.333L20.833,8.667L17.833,8.667ZM20.833,11.333L20.833,8.667L17.833,8.667L17.833,11.333L20.833,11.333ZM7.167,8.667L7.167,11.333L10.167,11.333L10.167,8.667L7.167,8.667ZM10.167,11.333L10.167,8.667L7.167,8.667L7.167,11.333L10.167,11.333ZM10,19.333C8.939,20.394 8.94,20.395 8.94,20.395C8.941,20.395 8.941,20.396 8.941,20.396C8.942,20.397 8.943,20.398 8.944,20.398C8.945,20.4 8.947,20.402 8.949,20.403C8.952,20.407 8.956,20.41 8.96,20.415C8.969,20.423 8.978,20.432 8.99,20.443C9.012,20.464 9.041,20.49 9.075,20.519C9.143,20.579 9.235,20.655 9.35,20.742C9.58,20.914 9.907,21.13 10.329,21.342C11.179,21.767 12.408,22.167 14,22.167L14,19.167C12.926,19.167 12.154,18.9 11.671,18.658C11.427,18.536 11.253,18.419 11.15,18.342C11.099,18.303 11.065,18.275 11.05,18.262C11.043,18.255 11.04,18.252 11.042,18.254C11.042,18.255 11.044,18.257 11.048,18.26C11.049,18.261 11.051,18.263 11.053,18.265C11.054,18.266 11.055,18.268 11.057,18.269C11.057,18.269 11.058,18.27 11.059,18.271C11.059,18.271 11.059,18.272 11.06,18.272C11.06,18.272 11.061,18.273 10,19.333ZM14,22.167C15.592,22.167 16.821,21.767 17.671,21.342C18.093,21.13 18.42,20.914 18.65,20.742C18.765,20.655 18.857,20.579 18.925,20.519C18.959,20.49 18.988,20.464 19.01,20.443C19.022,20.432 19.031,20.423 19.04,20.415C19.044,20.41 19.048,20.407 19.051,20.403C19.053,20.402 19.055,20.4 19.056,20.398C19.057,20.398 19.058,20.397 19.059,20.396C19.059,20.396 19.059,20.395 19.06,20.395C19.06,20.395 19.061,20.394 18,19.333C16.939,18.273 16.94,18.272 16.94,18.272C16.941,18.272 16.941,18.271 16.941,18.271C16.942,18.27 16.943,18.269 16.943,18.269C16.945,18.268 16.946,18.266 16.947,18.265C16.949,18.263 16.951,18.261 16.952,18.26C16.956,18.257 16.958,18.255 16.958,18.254C16.96,18.252 16.957,18.255 16.95,18.262C16.935,18.275 16.901,18.303 16.85,18.342C16.747,18.419 16.573,18.536 16.329,18.658C15.846,18.9 15.074,19.167 14,19.167L14,22.167ZM18,17.833L10,17.833L10,20.833L18,20.833L18,17.833ZM12.5,8.667L12.5,15.333L15.5,15.333L15.5,8.667L12.5,8.667ZM14,13.833L12.667,13.833L12.667,16.833L14,16.833L14,13.833ZM14.138,15.627L15.471,8.961L12.529,8.373L11.196,15.039L14.138,15.627ZM7.333,24.5L4.667,24.5L4.667,27.5L7.333,27.5L7.333,24.5ZM4.667,24.5C4.357,24.5 4.061,24.377 3.842,24.158L1.72,26.28C2.502,27.061 3.562,27.5 4.667,27.5L4.667,24.5ZM3.842,24.158C3.623,23.939 3.5,23.643 3.5,23.333L0.5,23.333C0.5,24.438 0.939,25.498 1.72,26.28L3.842,24.158ZM3.5,23.333L3.5,20.667L0.5,20.667L0.5,23.333L3.5,23.333ZM0.939,21.727L6.273,27.061L8.394,24.939L3.061,19.606L0.939,21.727ZM20.667,27.5L23.333,27.5L23.333,24.5L20.667,24.5L20.667,27.5ZM23.333,27.5C24.438,27.5 25.498,27.061 26.28,26.28L24.158,24.158C23.939,24.377 23.643,24.5 23.333,24.5L23.333,27.5ZM26.28,26.28C27.061,25.498 27.5,24.438 27.5,23.333L24.5,23.333C24.5,23.643 24.377,23.939 24.158,24.158L26.28,26.28ZM27.5,23.333L27.5,20.667L24.5,20.667L24.5,23.333L27.5,23.333Z" fill="#E9CEDB"/>
</svg>
