<svg width="196" height="198" viewBox="0 0 196 198" fill="none" xmlns="http://www.w3.org/2000/svg" xmlns:xlink="http://www.w3.org/1999/xlink">
<path d="M97,1C109.996,1 122.459,6.162 131.648,15.352C140.838,24.541 146,37.004 146,50C146,62.996 140.838,75.459 131.648,84.648C122.459,93.838 109.996,99 97,99C84.004,99 71.541,93.838 62.352,84.648C53.162,75.459 48,62.996 48,50C48,37.004 53.162,24.541 62.352,15.352C71.541,6.162 84.004,1 97,1L97,1ZM97,123.5C151.145,123.5 195,145.428 195,172.5L195,197L-1,197L-1,172.5C-1,145.428 42.855,123.5 97,123.5Z" fill="#E9CEDB"/>
</svg>
