<svg width="16" height="28" viewBox="0 0 16 28" fill="none" xmlns="http://www.w3.org/2000/svg" xmlns:xlink="http://www.w3.org/1999/xlink">
<path d="M0.09,22.671C-0.689,23.454 -0.686,24.72 0.097,25.5C0.879,26.279 2.146,26.276 2.925,25.493L0.09,22.671ZM12.498,13.041L13.916,14.452C14.692,13.672 14.692,12.41 13.916,11.63L12.498,13.041ZM2.925,0.589C2.146,-0.194 0.879,-0.197 0.097,0.583C-0.686,1.362 -0.689,2.628 0.09,3.411L2.925,0.589ZM2.925,25.493L13.916,14.452L11.081,11.63L0.09,22.671L2.925,25.493ZM13.916,11.63L2.925,0.589L0.09,3.411L11.081,14.452L13.916,11.63Z" fill="#000000"/>
</svg>
