<svg width="16" height="28" viewBox="0 0 16 28" fill="none" xmlns="http://www.w3.org/2000/svg" xmlns:xlink="http://www.w3.org/1999/xlink">
<path d="M0.583,22.671C-0.197,23.454 -0.194,24.72 0.589,25.5C1.372,26.279 2.638,26.276 3.417,25.493L0.583,22.671ZM12.991,13.041L14.408,14.452C15.185,13.672 15.185,12.41 14.408,11.63L12.991,13.041ZM3.417,0.589C2.638,-0.194 1.372,-0.197 0.589,0.583C-0.194,1.362 -0.197,2.628 0.583,3.411L3.417,0.589ZM3.417,25.493L14.408,14.452L11.573,11.63L0.583,22.671L3.417,25.493ZM14.408,11.63L3.417,0.589L0.583,3.411L11.573,14.452L14.408,11.63Z" fill="#000000"/>
</svg>
