<svg width="50" height="32" viewBox="0 0 50 32" fill="none" xmlns="http://www.w3.org/2000/svg" xmlns:xlink="http://www.w3.org/1999/xlink">
<path d="M15.456,0C11.357,0 7.425,1.648 4.527,4.581C1.628,7.515 0,11.493 0,15.641C0,19.79 1.628,23.768 4.527,26.702C7.425,29.635 11.357,31.283 15.456,31.283L34.002,31.283C38.101,31.283 42.033,29.635 44.931,26.702C47.83,23.768 49.458,19.79 49.458,15.641C49.458,11.493 47.83,7.515 44.931,4.581C42.033,1.648 38.101,0 34.002,0L15.456,0ZM34.002,28.155C30.723,28.155 27.578,26.836 25.259,24.49C22.941,22.143 21.638,18.96 21.638,15.641C21.638,12.323 22.941,9.14 25.259,6.793C27.578,4.447 30.723,3.128 34.002,3.128C37.282,3.128 40.427,4.447 42.745,6.793C45.064,9.14 46.367,12.323 46.367,15.641C46.367,18.96 45.064,22.143 42.745,24.49C40.427,26.836 37.282,28.155 34.002,28.155Z" fill="#E9CEDB"/>
</svg>
