<svg width="16" height="28" viewBox="0 0 16 28" fill="none" xmlns="http://www.w3.org/2000/svg" xmlns:xlink="http://www.w3.org/1999/xlink">
<path d="M1.33,22.636C0.551,23.419 0.554,24.686 1.337,25.465C2.119,26.244 3.386,26.241 4.165,25.458L1.33,22.636ZM13.738,13.006L15.156,14.417C15.932,13.637 15.932,12.376 15.156,11.596L13.738,13.006ZM4.165,0.554C3.386,-0.228 2.119,-0.231 1.337,0.548C0.554,1.327 0.551,2.594 1.33,3.376L4.165,0.554ZM4.165,25.458L15.156,14.417L12.321,11.596L1.33,22.636L4.165,25.458ZM15.156,11.596L4.165,0.554L1.33,3.376L12.321,14.417L15.156,11.596Z" fill="#000000"/>
</svg>
