<svg width="30" height="30" viewBox="0 0 30 30" fill="none" xmlns="http://www.w3.org/2000/svg" xmlns:xlink="http://www.w3.org/1999/xlink">
<path d="M14.654,0C16.597,0 18.461,0.775 19.835,2.156C21.209,3.536 21.981,5.409 21.981,7.361C21.981,9.313 21.209,11.185 19.835,12.565C18.461,13.946 16.597,14.721 14.654,14.721C12.711,14.721 10.847,13.946 9.473,12.565C8.099,11.185 7.327,9.313 7.327,7.361C7.327,5.409 8.099,3.536 9.473,2.156C10.847,0.775 12.711,0 14.654,0L14.654,0ZM14.654,18.402C22.751,18.402 29.308,21.696 29.308,25.762L29.308,29.443L0,29.443L0,25.762C0,21.696 6.558,18.402 14.654,18.402Z" fill="#E9CEDB"/>
</svg>
