<svg width="50" height="32" viewBox="0 0 50 32" fill="none" xmlns="http://www.w3.org/2000/svg" xmlns:xlink="http://www.w3.org/1999/xlink">
<path d="M14.458,0C10.359,0 6.428,1.648 3.529,4.581C0.631,7.515 -0.998,11.493 -0.998,15.641C-0.998,19.79 0.631,23.768 3.529,26.702C6.428,29.635 10.359,31.283 14.458,31.283L33.005,31.283C37.104,31.283 41.035,29.635 43.933,26.702C46.832,23.768 48.46,19.79 48.46,15.641C48.46,11.493 46.832,7.515 43.933,4.581C41.035,1.648 37.104,0 33.005,0L14.458,0ZM33.005,28.155C29.725,28.155 26.581,26.836 24.262,24.49C21.943,22.143 20.64,18.96 20.64,15.641C20.64,12.323 21.943,9.14 24.262,6.793C26.581,4.447 29.725,3.128 33.005,3.128C36.284,3.128 39.429,4.447 41.748,6.793C44.067,9.14 45.369,12.323 45.369,15.641C45.369,18.96 44.067,22.143 41.748,24.49C39.429,26.836 36.284,28.155 33.005,28.155Z" fill="#E9CEDB"/>
</svg>
